<mxfile host="app.diagrams.net" modified="2024-03-26T14:58:46.898Z" agent="Mozilla/5.0 (X11; Linux x86_64; rv:109.0) Gecko/20100101 Firefox/115.0" version="24.1.0" etag="Na61wUKUEzYpPQ79PBux" type="github">
  <diagram name="Page-1" id="ePF466YzwchXbknaJx9v">
    <mxGraphModel>
      <root>
        <mxCell id="0" />
        <mxCell id="1" parent="0" />
      </root>
    </mxGraphModel>
  </diagram>
</mxfile>
